<svg id="Layer_2_copy" data-name="Layer 2 copy" xmlns="http://www.w3.org/2000/svg" viewBox="0 0 2000 2000"><defs><style>.cls-1{fill:#ffcd00;}</style></defs><path class="cls-1" d="M462.64,1000c0,158.17,68.33,300.37,177.1,398.7l373.5-365.4v966.61c-4.42.07-8.82.09-13.24.09C447.72,2000,0,1552.28,0,1000S447.72,0,1000,0c4.42,0,8.82,0,13.24.09v462.7c-4.4-.11-8.82-.15-13.24-.15C703.24,462.64,462.64,703.24,462.64,1000Z"/><path class="cls-1" d="M2000,1000c0,463.12-314.84,852.72-742.16,966.44V1471.57c166.57-91.29,279.52-268.24,279.52-471.57a535,535,0,0,0-107.69-322.76q-14.84-19.75-31.47-38l0,0q-13.79-15.2-28.69-29.32l-.06-.05-9.08-9.29,69.32-67.83V96.78C1766.93,257.49,2000,601.51,2000,1000Z"/></svg>